<mxfile host="app.diagrams.net" agent="Mozilla/5.0 (Windows NT 10.0; Win64; x64) AppleWebKit/537.36 (KHTML, like Gecko) Chrome/130.0.0.0 Safari/537.36" version="24.8.4">
  <diagram name="Page-1" id="vxQpUxHL-rQDAXQSzeeY">
    <mxGraphModel grid="1" page="1" gridSize="10" guides="1" tooltips="1" connect="1" arrows="1" fold="1" pageScale="1" pageWidth="850" pageHeight="1100" math="0" shadow="0">
      <root>
        <mxCell id="0" />
        <mxCell id="1" parent="0" />
        <mxCell id="lVcOt3FG_vFLyFvASqAc-1" value="" style="shape=actor;whiteSpace=wrap;html=1;" vertex="1" parent="1">
          <mxGeometry x="160" y="249" width="40" height="60" as="geometry" />
        </mxCell>
        <mxCell id="lVcOt3FG_vFLyFvASqAc-2" value="" style="sketch=0;points=[[0,0,0],[0.25,0,0],[0.5,0,0],[0.75,0,0],[1,0,0],[0,1,0],[0.25,1,0],[0.5,1,0],[0.75,1,0],[1,1,0],[0,0.25,0],[0,0.5,0],[0,0.75,0],[1,0.25,0],[1,0.5,0],[1,0.75,0]];outlineConnect=0;fontColor=#232F3E;fillColor=#8C4FFF;strokeColor=#ffffff;dashed=0;verticalLabelPosition=bottom;verticalAlign=top;align=center;html=1;fontSize=12;fontStyle=0;aspect=fixed;shape=mxgraph.aws4.resourceIcon;resIcon=mxgraph.aws4.api_gateway;" vertex="1" parent="1">
          <mxGeometry x="360" y="240" width="78" height="78" as="geometry" />
        </mxCell>
        <mxCell id="lVcOt3FG_vFLyFvASqAc-11" style="edgeStyle=none;rounded=0;orthogonalLoop=1;jettySize=auto;html=1;" edge="1" parent="1" source="lVcOt3FG_vFLyFvASqAc-3" target="lVcOt3FG_vFLyFvASqAc-6">
          <mxGeometry relative="1" as="geometry" />
        </mxCell>
        <mxCell id="lVcOt3FG_vFLyFvASqAc-12" style="edgeStyle=none;rounded=0;orthogonalLoop=1;jettySize=auto;html=1;" edge="1" parent="1" source="lVcOt3FG_vFLyFvASqAc-3" target="lVcOt3FG_vFLyFvASqAc-5">
          <mxGeometry relative="1" as="geometry">
            <Array as="points">
              <mxPoint x="759" y="320" />
            </Array>
          </mxGeometry>
        </mxCell>
        <mxCell id="lVcOt3FG_vFLyFvASqAc-3" value="" style="sketch=0;points=[[0,0,0],[0.25,0,0],[0.5,0,0],[0.75,0,0],[1,0,0],[0,1,0],[0.25,1,0],[0.5,1,0],[0.75,1,0],[1,1,0],[0,0.25,0],[0,0.5,0],[0,0.75,0],[1,0.25,0],[1,0.5,0],[1,0.75,0]];outlineConnect=0;fontColor=#232F3E;fillColor=#ED7100;strokeColor=#ffffff;dashed=0;verticalLabelPosition=bottom;verticalAlign=top;align=center;html=1;fontSize=12;fontStyle=0;aspect=fixed;shape=mxgraph.aws4.resourceIcon;resIcon=mxgraph.aws4.lambda;" vertex="1" parent="1">
          <mxGeometry x="720" y="60" width="78" height="78" as="geometry" />
        </mxCell>
        <mxCell id="lVcOt3FG_vFLyFvASqAc-4" value="" style="sketch=0;points=[[0,0,0],[0.25,0,0],[0.5,0,0],[0.75,0,0],[1,0,0],[0,1,0],[0.25,1,0],[0.5,1,0],[0.75,1,0],[1,1,0],[0,0.25,0],[0,0.5,0],[0,0.75,0],[1,0.25,0],[1,0.5,0],[1,0.75,0]];outlineConnect=0;fontColor=#232F3E;fillColor=#ED7100;strokeColor=#ffffff;dashed=0;verticalLabelPosition=bottom;verticalAlign=top;align=center;html=1;fontSize=12;fontStyle=0;aspect=fixed;shape=mxgraph.aws4.resourceIcon;resIcon=mxgraph.aws4.lambda;" vertex="1" parent="1">
          <mxGeometry x="720" y="410" width="78" height="78" as="geometry" />
        </mxCell>
        <mxCell id="lVcOt3FG_vFLyFvASqAc-5" value="Amazon DynamoDB" style="sketch=0;outlineConnect=0;fontColor=#232F3E;gradientColor=none;strokeColor=#ffffff;fillColor=#232F3E;dashed=0;verticalLabelPosition=middle;verticalAlign=bottom;align=center;html=1;whiteSpace=wrap;fontSize=10;fontStyle=1;spacing=3;shape=mxgraph.aws4.productIcon;prIcon=mxgraph.aws4.dynamodb;" vertex="1" parent="1">
          <mxGeometry x="910" y="270" width="80" height="100" as="geometry" />
        </mxCell>
        <mxCell id="lVcOt3FG_vFLyFvASqAc-21" value="" style="edgeStyle=none;rounded=0;orthogonalLoop=1;jettySize=auto;html=1;" edge="1" parent="1" source="lVcOt3FG_vFLyFvASqAc-6" target="lVcOt3FG_vFLyFvASqAc-20">
          <mxGeometry relative="1" as="geometry" />
        </mxCell>
        <mxCell id="lVcOt3FG_vFLyFvASqAc-6" value="Amazon Cognito" style="sketch=0;outlineConnect=0;fontColor=#232F3E;gradientColor=none;strokeColor=#ffffff;fillColor=#232F3E;dashed=0;verticalLabelPosition=middle;verticalAlign=bottom;align=center;html=1;whiteSpace=wrap;fontSize=10;fontStyle=1;spacing=3;shape=mxgraph.aws4.productIcon;prIcon=mxgraph.aws4.cognito;" vertex="1" parent="1">
          <mxGeometry x="1310" y="44" width="80" height="110" as="geometry" />
        </mxCell>
        <mxCell id="lVcOt3FG_vFLyFvASqAc-7" style="edgeStyle=none;rounded=0;orthogonalLoop=1;jettySize=auto;html=1;entryX=0;entryY=0.5;entryDx=0;entryDy=0;entryPerimeter=0;" edge="1" parent="1" source="lVcOt3FG_vFLyFvASqAc-1" target="lVcOt3FG_vFLyFvASqAc-2">
          <mxGeometry relative="1" as="geometry" />
        </mxCell>
        <mxCell id="lVcOt3FG_vFLyFvASqAc-8" style="edgeStyle=none;rounded=0;orthogonalLoop=1;jettySize=auto;html=1;entryX=0;entryY=0.5;entryDx=0;entryDy=0;entryPerimeter=0;" edge="1" parent="1" source="lVcOt3FG_vFLyFvASqAc-2" target="lVcOt3FG_vFLyFvASqAc-3">
          <mxGeometry relative="1" as="geometry">
            <Array as="points">
              <mxPoint x="560" y="279" />
              <mxPoint x="560" y="100" />
            </Array>
          </mxGeometry>
        </mxCell>
        <mxCell id="lVcOt3FG_vFLyFvASqAc-10" style="edgeStyle=none;rounded=0;orthogonalLoop=1;jettySize=auto;html=1;entryX=0;entryY=0.5;entryDx=0;entryDy=0;entryPerimeter=0;" edge="1" parent="1" source="lVcOt3FG_vFLyFvASqAc-2" target="lVcOt3FG_vFLyFvASqAc-4">
          <mxGeometry relative="1" as="geometry">
            <Array as="points">
              <mxPoint x="560" y="279" />
              <mxPoint x="560" y="449" />
            </Array>
          </mxGeometry>
        </mxCell>
        <mxCell id="lVcOt3FG_vFLyFvASqAc-15" value="auth/register" style="text;html=1;align=center;verticalAlign=middle;resizable=0;points=[];autosize=1;strokeColor=none;fillColor=none;" vertex="1" parent="1">
          <mxGeometry x="585" y="68" width="90" height="30" as="geometry" />
        </mxCell>
        <mxCell id="lVcOt3FG_vFLyFvASqAc-16" value="auth/generateQuestion" style="text;html=1;align=center;verticalAlign=middle;resizable=0;points=[];autosize=1;strokeColor=none;fillColor=none;" vertex="1" parent="1">
          <mxGeometry x="555" y="410" width="150" height="30" as="geometry" />
        </mxCell>
        <mxCell id="lVcOt3FG_vFLyFvASqAc-17" value="Add User" style="text;html=1;align=center;verticalAlign=middle;resizable=0;points=[];autosize=1;strokeColor=none;fillColor=none;" vertex="1" parent="1">
          <mxGeometry x="905" y="68" width="70" height="30" as="geometry" />
        </mxCell>
        <mxCell id="lVcOt3FG_vFLyFvASqAc-18" value="Save Security Questions" style="text;html=1;align=center;verticalAlign=middle;resizable=0;points=[];autosize=1;strokeColor=none;fillColor=none;" vertex="1" parent="1">
          <mxGeometry x="755" y="318" width="150" height="30" as="geometry" />
        </mxCell>
        <mxCell id="lVcOt3FG_vFLyFvASqAc-19" value="Trigger Postconfiguration&amp;nbsp;&lt;span style=&quot;background-color: initial;&quot;&gt;Lambda&amp;nbsp;&lt;/span&gt;&lt;div&gt;&lt;div&gt;on confirmation status&lt;/div&gt;&lt;/div&gt;" style="text;html=1;align=center;verticalAlign=middle;resizable=0;points=[];autosize=1;strokeColor=none;fillColor=none;" vertex="1" parent="1">
          <mxGeometry x="1140" y="180" width="210" height="40" as="geometry" />
        </mxCell>
        <mxCell id="lVcOt3FG_vFLyFvASqAc-23" value="" style="edgeStyle=none;rounded=0;orthogonalLoop=1;jettySize=auto;html=1;" edge="1" parent="1" source="lVcOt3FG_vFLyFvASqAc-20" target="lVcOt3FG_vFLyFvASqAc-5">
          <mxGeometry relative="1" as="geometry">
            <mxPoint x="1230" y="309" as="targetPoint" />
          </mxGeometry>
        </mxCell>
        <mxCell id="lVcOt3FG_vFLyFvASqAc-20" value="" style="sketch=0;points=[[0,0,0],[0.25,0,0],[0.5,0,0],[0.75,0,0],[1,0,0],[0,1,0],[0.25,1,0],[0.5,1,0],[0.75,1,0],[1,1,0],[0,0.25,0],[0,0.5,0],[0,0.75,0],[1,0.25,0],[1,0.5,0],[1,0.75,0]];outlineConnect=0;fontColor=#232F3E;fillColor=#ED7100;strokeColor=#ffffff;dashed=0;verticalLabelPosition=bottom;verticalAlign=top;align=center;html=1;fontSize=12;fontStyle=0;aspect=fixed;shape=mxgraph.aws4.resourceIcon;resIcon=mxgraph.aws4.lambda;" vertex="1" parent="1">
          <mxGeometry x="1310" y="281" width="78" height="78" as="geometry" />
        </mxCell>
        <mxCell id="lVcOt3FG_vFLyFvASqAc-24" value="Save user details" style="text;html=1;align=center;verticalAlign=middle;resizable=0;points=[];autosize=1;strokeColor=none;fillColor=none;" vertex="1" parent="1">
          <mxGeometry x="1080" y="318" width="120" height="30" as="geometry" />
        </mxCell>
        <mxCell id="lVcOt3FG_vFLyFvASqAc-25" value="" style="shape=actor;whiteSpace=wrap;html=1;" vertex="1" parent="1">
          <mxGeometry x="310" y="1145" width="40" height="60" as="geometry" />
        </mxCell>
        <mxCell id="lVcOt3FG_vFLyFvASqAc-26" value="" style="sketch=0;points=[[0,0,0],[0.25,0,0],[0.5,0,0],[0.75,0,0],[1,0,0],[0,1,0],[0.25,1,0],[0.5,1,0],[0.75,1,0],[1,1,0],[0,0.25,0],[0,0.5,0],[0,0.75,0],[1,0.25,0],[1,0.5,0],[1,0.75,0]];outlineConnect=0;fontColor=#232F3E;fillColor=#8C4FFF;strokeColor=#ffffff;dashed=0;verticalLabelPosition=bottom;verticalAlign=top;align=center;html=1;fontSize=12;fontStyle=0;aspect=fixed;shape=mxgraph.aws4.resourceIcon;resIcon=mxgraph.aws4.api_gateway;" vertex="1" parent="1">
          <mxGeometry x="510" y="1136" width="78" height="78" as="geometry" />
        </mxCell>
        <mxCell id="lVcOt3FG_vFLyFvASqAc-27" style="edgeStyle=none;rounded=0;orthogonalLoop=1;jettySize=auto;html=1;" edge="1" parent="1" source="lVcOt3FG_vFLyFvASqAc-29" target="lVcOt3FG_vFLyFvASqAc-33">
          <mxGeometry relative="1" as="geometry">
            <Array as="points">
              <mxPoint x="1230" y="929" />
            </Array>
          </mxGeometry>
        </mxCell>
        <mxCell id="lVcOt3FG_vFLyFvASqAc-29" value="" style="sketch=0;points=[[0,0,0],[0.25,0,0],[0.5,0,0],[0.75,0,0],[1,0,0],[0,1,0],[0.25,1,0],[0.5,1,0],[0.75,1,0],[1,1,0],[0,0.25,0],[0,0.5,0],[0,0.75,0],[1,0.25,0],[1,0.5,0],[1,0.75,0]];outlineConnect=0;fontColor=#232F3E;fillColor=#ED7100;strokeColor=#ffffff;dashed=0;verticalLabelPosition=bottom;verticalAlign=top;align=center;html=1;fontSize=12;fontStyle=0;aspect=fixed;shape=mxgraph.aws4.resourceIcon;resIcon=mxgraph.aws4.lambda;" vertex="1" parent="1">
          <mxGeometry x="880" y="890" width="78" height="78" as="geometry" />
        </mxCell>
        <mxCell id="lVcOt3FG_vFLyFvASqAc-49" value="" style="edgeStyle=none;rounded=0;orthogonalLoop=1;jettySize=auto;html=1;entryX=0.5;entryY=1;entryDx=0;entryDy=0;entryPerimeter=0;" edge="1" parent="1" source="lVcOt3FG_vFLyFvASqAc-30" target="lVcOt3FG_vFLyFvASqAc-33">
          <mxGeometry relative="1" as="geometry">
            <mxPoint x="1038" y="1529" as="targetPoint" />
            <Array as="points">
              <mxPoint x="1230" y="1440" />
            </Array>
          </mxGeometry>
        </mxCell>
        <mxCell id="lVcOt3FG_vFLyFvASqAc-30" value="" style="sketch=0;points=[[0,0,0],[0.25,0,0],[0.5,0,0],[0.75,0,0],[1,0,0],[0,1,0],[0.25,1,0],[0.5,1,0],[0.75,1,0],[1,1,0],[0,0.25,0],[0,0.5,0],[0,0.75,0],[1,0.25,0],[1,0.5,0],[1,0.75,0]];outlineConnect=0;fontColor=#232F3E;fillColor=#ED7100;strokeColor=#ffffff;dashed=0;verticalLabelPosition=bottom;verticalAlign=top;align=center;html=1;fontSize=12;fontStyle=0;aspect=fixed;shape=mxgraph.aws4.resourceIcon;resIcon=mxgraph.aws4.lambda;" vertex="1" parent="1">
          <mxGeometry x="880" y="1400" width="78" height="78" as="geometry" />
        </mxCell>
        <mxCell id="lVcOt3FG_vFLyFvASqAc-33" value="Amazon Cognito" style="sketch=0;outlineConnect=0;fontColor=#232F3E;gradientColor=none;strokeColor=#ffffff;fillColor=#232F3E;dashed=0;verticalLabelPosition=middle;verticalAlign=bottom;align=center;html=1;whiteSpace=wrap;fontSize=10;fontStyle=1;spacing=3;shape=mxgraph.aws4.productIcon;prIcon=mxgraph.aws4.cognito;" vertex="1" parent="1">
          <mxGeometry x="1190" y="1130" width="80" height="110" as="geometry" />
        </mxCell>
        <mxCell id="lVcOt3FG_vFLyFvASqAc-34" style="edgeStyle=none;rounded=0;orthogonalLoop=1;jettySize=auto;html=1;entryX=0;entryY=0.5;entryDx=0;entryDy=0;entryPerimeter=0;" edge="1" parent="1" source="lVcOt3FG_vFLyFvASqAc-25" target="lVcOt3FG_vFLyFvASqAc-26">
          <mxGeometry relative="1" as="geometry" />
        </mxCell>
        <mxCell id="lVcOt3FG_vFLyFvASqAc-35" style="edgeStyle=none;rounded=0;orthogonalLoop=1;jettySize=auto;html=1;entryX=0;entryY=0.5;entryDx=0;entryDy=0;entryPerimeter=0;" edge="1" parent="1" source="lVcOt3FG_vFLyFvASqAc-26" target="lVcOt3FG_vFLyFvASqAc-29">
          <mxGeometry relative="1" as="geometry">
            <Array as="points">
              <mxPoint x="710" y="1175" />
              <mxPoint x="710" y="929" />
            </Array>
          </mxGeometry>
        </mxCell>
        <mxCell id="lVcOt3FG_vFLyFvASqAc-36" style="edgeStyle=none;rounded=0;orthogonalLoop=1;jettySize=auto;html=1;entryX=0;entryY=0.5;entryDx=0;entryDy=0;entryPerimeter=0;" edge="1" parent="1" source="lVcOt3FG_vFLyFvASqAc-26" target="lVcOt3FG_vFLyFvASqAc-30">
          <mxGeometry relative="1" as="geometry">
            <Array as="points">
              <mxPoint x="710" y="1175" />
              <mxPoint x="710" y="1345" />
              <mxPoint x="710" y="1439" />
            </Array>
          </mxGeometry>
        </mxCell>
        <mxCell id="lVcOt3FG_vFLyFvASqAc-37" value="auth/login" style="text;html=1;align=center;verticalAlign=middle;resizable=0;points=[];autosize=1;strokeColor=none;fillColor=none;" vertex="1" parent="1">
          <mxGeometry x="755" y="900" width="80" height="30" as="geometry" />
        </mxCell>
        <mxCell id="lVcOt3FG_vFLyFvASqAc-38" value="auth/signout" style="text;html=1;align=center;verticalAlign=middle;resizable=0;points=[];autosize=1;strokeColor=none;fillColor=none;" vertex="1" parent="1">
          <mxGeometry x="745" y="1448" width="90" height="30" as="geometry" />
        </mxCell>
        <mxCell id="lVcOt3FG_vFLyFvASqAc-39" value="Verify user into cognito" style="text;html=1;align=center;verticalAlign=middle;resizable=0;points=[];autosize=1;strokeColor=none;fillColor=none;" vertex="1" parent="1">
          <mxGeometry x="1035" y="900" width="140" height="30" as="geometry" />
        </mxCell>
        <mxCell id="lVcOt3FG_vFLyFvASqAc-45" value="" style="sketch=0;points=[[0,0,0],[0.25,0,0],[0.5,0,0],[0.75,0,0],[1,0,0],[0,1,0],[0.25,1,0],[0.5,1,0],[0.75,1,0],[1,1,0],[0,0.25,0],[0,0.5,0],[0,0.75,0],[1,0.25,0],[1,0.5,0],[1,0.75,0]];outlineConnect=0;fontColor=#232F3E;fillColor=#ED7100;strokeColor=#ffffff;dashed=0;verticalLabelPosition=bottom;verticalAlign=top;align=center;html=1;fontSize=12;fontStyle=0;aspect=fixed;shape=mxgraph.aws4.resourceIcon;resIcon=mxgraph.aws4.lambda;" vertex="1" parent="1">
          <mxGeometry x="880" y="1136" width="78" height="78" as="geometry" />
        </mxCell>
        <mxCell id="lVcOt3FG_vFLyFvASqAc-46" value="" style="endArrow=classic;html=1;rounded=0;exitX=1;exitY=0.5;exitDx=0;exitDy=0;exitPerimeter=0;entryX=0;entryY=0.5;entryDx=0;entryDy=0;entryPerimeter=0;" edge="1" parent="1" source="lVcOt3FG_vFLyFvASqAc-26" target="lVcOt3FG_vFLyFvASqAc-45">
          <mxGeometry width="50" height="50" relative="1" as="geometry">
            <mxPoint x="860" y="1210" as="sourcePoint" />
            <mxPoint x="910" y="1160" as="targetPoint" />
          </mxGeometry>
        </mxCell>
        <mxCell id="lVcOt3FG_vFLyFvASqAc-47" value="auth/generateQuestions" style="text;html=1;align=center;verticalAlign=middle;resizable=0;points=[];autosize=1;strokeColor=none;fillColor=none;" vertex="1" parent="1">
          <mxGeometry x="715" y="1136" width="150" height="30" as="geometry" />
        </mxCell>
        <mxCell id="lVcOt3FG_vFLyFvASqAc-51" value="Invalid Token" style="text;html=1;align=center;verticalAlign=middle;resizable=0;points=[];autosize=1;strokeColor=none;fillColor=none;" vertex="1" parent="1">
          <mxGeometry x="1060" y="1400" width="90" height="30" as="geometry" />
        </mxCell>
      </root>
    </mxGraphModel>
  </diagram>
</mxfile>
